<svg width="41" height="41" viewBox="0 0 41 41" fill="none" xmlns="http://www.w3.org/2000/svg">
<circle cx="20.5" cy="20.5" r="20.5" fill="#F2F2F3"/>
<path d="M15.44 23.296C17.0908 25.2733 19.1445 26.8755 21.4639 27.9954C22.5164 28.5368 23.6617 28.8747 24.8395 28.9914C24.9208 28.9914 24.9986 28.9987 25.0823 28.9987C25.4889 29.0112 25.8933 28.9348 26.2673 28.7747C26.6412 28.6146 26.9757 28.3748 27.2473 28.0719C27.2526 28.0669 27.2571 28.0612 27.2607 28.0549C27.4753 27.808 27.7031 27.5728 27.9431 27.3504C28.1095 27.1925 28.2795 27.0261 28.4434 26.8524C28.6198 26.692 28.7605 26.4963 28.8564 26.2779C28.9523 26.0596 29.0012 25.8235 29 25.585C28.9987 25.3465 28.9473 25.111 28.8491 24.8937C28.7509 24.6763 28.6081 24.4821 28.43 24.3236L26.3075 22.2113C26.1493 22.0355 25.9567 21.894 25.7415 21.7958C25.5264 21.6976 25.2933 21.6447 25.0568 21.6405C24.8199 21.6463 24.5864 21.6993 24.3702 21.7965C24.154 21.8937 23.9593 22.0331 23.7977 22.2065L22.5324 23.4661C22.411 23.3992 22.2896 23.3446 22.1827 23.2826C22.0497 23.2188 21.92 23.1482 21.7941 23.0713C20.5766 22.2836 19.4952 21.3031 18.5922 20.1683C18.1566 19.646 17.7924 19.068 17.5091 18.4497C17.8418 18.1509 18.1526 17.8423 18.4525 17.5302C18.5594 17.4209 18.6687 17.3128 18.778 17.2022C18.9554 17.0407 19.0988 16.8453 19.1997 16.6275C19.3006 16.4098 19.357 16.174 19.3657 15.9342C19.3572 15.6953 19.3009 15.4605 19.2002 15.2437C19.0995 15.027 18.9563 14.8326 18.7792 14.6722L17.7313 13.6227C17.6098 13.5013 17.4811 13.3737 17.367 13.2486C17.1326 13.0142 16.8898 12.7628 16.6482 12.5466C16.4861 12.3768 16.2918 12.241 16.0766 12.1471C15.8614 12.0533 15.6298 12.0033 15.3951 12C14.9224 12.0122 14.4731 12.2078 14.142 12.5454L12.8184 13.8681C12.3473 14.3265 12.0593 14.941 12.0085 15.5965C11.9591 16.5602 12.125 17.5229 12.4942 18.4144C13.1833 20.2014 14.1803 21.8536 15.44 23.296ZM12.8718 15.6706C12.9072 15.2157 13.1081 14.7896 13.4365 14.473L14.7491 13.1636C14.9191 12.9826 15.153 12.8749 15.4011 12.8636C15.5223 12.8694 15.641 12.8995 15.7503 12.9521C15.8596 13.0047 15.9572 13.0787 16.0374 13.1697C16.2802 13.3871 16.4976 13.6167 16.738 13.8596L17.1023 14.2337L18.1599 15.2795C18.2562 15.3617 18.3353 15.4622 18.3924 15.5752C18.4495 15.6882 18.4836 15.8115 18.4926 15.9378C18.4836 16.0641 18.4495 16.1874 18.3924 16.3004C18.3353 16.4134 18.2562 16.514 18.1599 16.5961L17.8308 16.9265C17.5018 17.2581 17.1946 17.5715 16.8594 17.8703L16.8364 17.8921C16.7288 17.9876 16.6539 18.1145 16.6223 18.2549C16.5907 18.3952 16.604 18.542 16.6603 18.6744L16.67 18.7035C16.9857 19.4304 17.404 20.1081 17.9122 20.7161C18.8721 21.9261 20.024 22.9704 21.3218 23.8074C21.4728 23.8984 21.6284 23.9815 21.7881 24.0564C21.9211 24.1202 22.0508 24.1908 22.1766 24.2677L22.2155 24.2884C22.3208 24.3451 22.4383 24.3755 22.5579 24.377C22.6577 24.3736 22.7558 24.3504 22.8464 24.3087C22.9371 24.267 23.0186 24.2076 23.0861 24.1341L24.4084 22.8102C24.4904 22.7179 24.5898 22.6428 24.7008 22.589C24.8119 22.5352 24.9324 22.5039 25.0556 22.4968C25.1756 22.504 25.2929 22.5355 25.4004 22.5894C25.5079 22.6432 25.6033 22.7183 25.681 22.8102L27.8144 24.9272C27.9133 25.0076 27.9929 25.1092 28.0472 25.2245C28.1016 25.3398 28.1293 25.4659 28.1284 25.5934C28.1275 25.7208 28.0979 25.8465 28.0418 25.961C27.9858 26.0755 27.9048 26.1759 27.8047 26.2548C27.6553 26.4127 27.5011 26.5646 27.3348 26.7225C27.0751 26.964 26.8283 27.2191 26.5953 27.4865C26.4047 27.6981 26.17 27.8652 25.9077 27.976C25.6454 28.0869 25.362 28.1387 25.0775 28.1278C25.0163 28.1291 24.955 28.1267 24.8941 28.1205C23.8295 28.0114 22.7948 27.7032 21.8439 27.212C19.6367 26.1527 17.6811 24.6342 16.1078 22.7579C14.9156 21.3873 13.9706 19.8198 13.315 18.1254C12.9858 17.3504 12.8336 16.5118 12.8694 15.6706H12.8718Z" fill="#505050"/>
</svg>
