<svg width="22" height="25" viewBox="0 0 22 25" fill="none" xmlns="http://www.w3.org/2000/svg">
<path fill-rule="evenodd" clip-rule="evenodd" d="M11.6125 0.941406C8.98545 0.941406 6.85583 3.07102 6.85583 5.69803V7.39039H2.84798L0.785522 24.7472H21.9994L19.8633 7.39039H16.3691V5.69803C16.3691 3.07102 14.2395 0.941406 11.6125 0.941406ZM14.3691 7.39039V5.69803C14.3691 4.17559 13.1349 2.94141 11.6125 2.94141C10.09 2.94141 8.85583 4.17559 8.85583 5.69803V7.39039H14.3691ZM15.1482 11.2222C15.7584 11.2222 16.2531 10.7276 16.2531 10.1174C16.2531 9.50714 15.7584 9.01246 15.1482 9.01246C14.538 9.01246 14.0433 9.50714 14.0433 10.1174C14.0433 10.7276 14.538 11.2222 15.1482 11.2222ZM8.88788 10.1174C8.88788 10.7276 8.3932 11.2222 7.78299 11.2222C7.17278 11.2222 6.6781 10.7276 6.6781 10.1174C6.6781 9.50714 7.17278 9.01246 7.78299 9.01246C8.3932 9.01246 8.88788 9.50714 8.88788 10.1174Z" fill="#092B2F"/>
</svg>
