<svg width="41" height="41" viewBox="0 0 41 41" fill="none" xmlns="http://www.w3.org/2000/svg">
<circle cx="20.5" cy="20.5" r="20.5" fill="#F2F2F3"/>
<path d="M28.1365 14.0002H12.8635C12.3875 14.0002 12 14.3873 12 14.8634V25.8904C12 26.3665 12.3875 26.7536 12.8635 26.7536H28.1365C28.6125 26.7536 29 26.3665 29 25.8904V14.8634C29 14.3873 28.6125 14 28.1365 14V14.0002ZM27.7434 14.7124L22.2238 19.8891L20.6917 21.3256C20.5784 21.4319 20.4009 21.4319 20.2876 21.3251L18.7593 19.8882L13.2549 14.7124L27.7434 14.7124ZM28.2877 25.8906C28.2877 25.9738 28.2199 26.0415 28.1365 26.0415H12.8635C12.7803 26.0415 12.7123 25.9738 12.7123 25.8906V15.18L18.2397 20.377L14.7185 23.6878L15.2063 24.2066L18.7595 20.866L19.7995 21.8441C19.8116 21.8555 19.824 21.8665 19.8365 21.8772C19.8553 21.8933 19.8745 21.9085 19.894 21.9228C19.9201 21.942 19.9473 21.9598 19.9747 21.9762C19.9885 21.9844 20.0022 21.9922 20.0163 21.9998C20.0234 22.0033 20.0305 22.0071 20.0375 22.0106C20.0517 22.0178 20.066 22.0244 20.0804 22.0308C20.1019 22.0403 20.1241 22.0491 20.1462 22.0571C20.1609 22.0624 20.1758 22.0673 20.1908 22.072C20.2057 22.0766 20.2206 22.0808 20.2359 22.0849C20.2508 22.0886 20.2661 22.0922 20.2815 22.0956C20.2968 22.0987 20.3122 22.1015 20.3273 22.1041C20.3427 22.1065 20.3582 22.1087 20.3736 22.1105C20.389 22.1122 20.4044 22.1136 20.4201 22.1148C20.4355 22.1158 20.4509 22.1165 20.4665 22.117C20.4743 22.1171 20.4819 22.1171 20.4897 22.1171C20.5438 22.1171 20.5983 22.1129 20.6519 22.1041C20.6671 22.1017 20.6826 22.0988 20.6977 22.0956C20.728 22.0895 20.7582 22.0815 20.788 22.0724C20.803 22.0676 20.8179 22.0627 20.8326 22.0574C20.8399 22.0549 20.8474 22.052 20.8547 22.0491C20.8671 22.0444 20.8795 22.0395 20.8917 22.0339C20.9083 22.0268 20.9247 22.0191 20.941 22.0108C20.9553 22.0039 20.9693 21.9964 20.9831 21.9884C21.0039 21.9767 21.0244 21.9642 21.0446 21.9511C21.0582 21.9421 21.0713 21.9328 21.0843 21.9233C21.117 21.8994 21.1486 21.8733 21.1788 21.845L22.2234 20.8651L25.7865 24.207L26.2738 23.6872L22.7447 20.3771L28.2878 15.1783L28.2877 25.8906Z" fill="#505050"/>
</svg>
