<svg width="41" height="41" viewBox="0 0 41 41" fill="none" xmlns="http://www.w3.org/2000/svg">
<circle cx="20.5002" cy="20.5" r="20.5" fill="#F2F2F3"/>
<path d="M20.323 12C16.8362 12 14.0002 14.8359 14.0002 18.3227C14.0002 19.5593 14.3052 20.4464 14.9472 21.3955L19.9618 28.8084C20.0429 28.9282 20.1782 29 20.3229 29C20.4675 29 20.6028 28.9282 20.6839 28.8084L25.6985 21.3955C26.3405 20.4462 26.6455 19.5593 26.6455 18.3227C26.6455 14.8359 23.8096 12 20.3228 12H20.323ZM20.323 12.872C23.3384 12.872 25.7736 15.3072 25.7736 18.3226C25.7736 19.4295 25.5559 20.0548 24.9763 20.9117L20.3231 27.7931L15.6698 20.9117C15.0902 20.0548 14.8726 19.4295 14.8726 18.3226C14.8726 15.3072 17.3077 12.872 20.3232 12.872H20.323ZM20.323 15.0523C18.6423 15.0523 17.2707 16.424 17.2707 18.1045C17.2707 19.785 18.6425 21.1568 20.323 21.1568C22.0036 21.1568 23.3752 19.785 23.3752 18.1045C23.3752 16.4239 22.0035 15.0523 20.323 15.0523ZM20.323 15.9243C21.5322 15.9243 22.5032 16.8953 22.5032 18.1045C22.5032 19.3138 21.5322 20.2848 20.323 20.2848C19.1137 20.2848 18.1427 19.3138 18.1427 18.1045C18.1427 16.8953 19.1137 15.9243 20.323 15.9243Z" fill="#505050"/>
</svg>
