<svg width="24" height="18" viewBox="0 0 24 18" fill="none" xmlns="http://www.w3.org/2000/svg">
<mask id="mask0_3_406" style="mask-type:alpha" maskUnits="userSpaceOnUse" x="0" y="0" width="24" height="18">
<path d="M0.125 0.0390625H23.8743V17.9472H0.125V0.0390625Z" fill="white"/>
</mask>
<g mask="url(#mask0_3_406)">
<path fill-rule="evenodd" clip-rule="evenodd" d="M11.9996 8.8445L23.8743 1.86032V1.82988C23.8743 1.33536 23.6959 0.913258 23.3392 0.563579C22.9825 0.213902 22.5519 0.0390625 22.0474 0.0390625H1.95187C1.44739 0.0390625 1.01679 0.213902 0.660077 0.56358C0.303359 0.913259 0.125 1.33536 0.125 1.82988V1.86032L11.9996 8.8445Z" fill="#092B2F"/>
<path fill-rule="evenodd" clip-rule="evenodd" d="M12.47 10.1774C12.1564 10.3489 11.8428 10.3489 11.5292 10.1774L0.125 3.94849V15.2854C0.125 15.7447 0.303359 16.1367 0.660076 16.4614C1.01679 16.7861 1.44739 16.9485 1.95187 16.9485H22.0474C22.5519 16.9485 22.9825 16.7861 23.3392 16.4614C23.6959 16.1367 23.8743 15.7447 23.8743 15.2854V3.94849L12.47 10.1774Z" fill="#092B2F"/>
</g>
</svg>
