<svg width="17" height="23" viewBox="0 0 17 23" fill="none" xmlns="http://www.w3.org/2000/svg">
<path fill-rule="evenodd" clip-rule="evenodd" d="M8.11164 21.8703C8.25529 22.028 8.46739 22.1192 8.69179 22.1192C8.91618 22.1192 9.12829 22.028 9.27193 21.8703C9.27193 21.8703 12.0357 18.8359 14.2464 15.1943C15.7623 12.6969 17.0004 9.91569 17.0004 7.60345C17.0004 3.40714 13.2773 0 8.69161 0C4.10593 0 0.382812 3.40706 0.382812 7.60345C0.382812 9.91565 1.62089 12.6972 3.1368 15.1943C5.34772 18.8357 8.11129 21.8703 8.11129 21.8703H8.11164ZM8.69179 3.45611C6.1909 3.45611 4.15971 5.31487 4.15971 7.60345C4.15971 9.89203 6.1909 11.7508 8.69179 11.7508C11.1927 11.7508 13.2239 9.89203 13.2239 7.60345C13.2239 5.31487 11.1927 3.45611 8.69179 3.45611Z" fill="#092B2F"/>
</svg>
