<svg width="22" height="24" viewBox="0 0 22 24" fill="none" xmlns="http://www.w3.org/2000/svg">
<path d="M21.1779 18.8142C20.1076 21.8562 17.3712 22.4783 16.471 22.5098C16.2066 22.519 12.0976 22.8953 5.97102 17.1211C1.04008 12.4749 0.27748 7.31946 0.192595 6.33784C0.109864 5.38173 0.283413 2.96987 3.3237 1.07643C3.70043 0.841869 4.4591 0.717173 4.66325 0.919899C4.75385 1.00988 7.51738 5.48406 7.59109 5.6333C7.66475 5.78191 7.70438 5.9295 7.70947 6.07531C7.71675 6.2838 7.58639 6.54943 7.3182 6.87194C7.05034 7.19442 6.75695 7.49185 6.43811 7.76378C6.11931 8.03601 5.82555 8.32285 5.55662 8.6245C5.28787 8.92597 5.15693 9.17091 5.16348 9.35857C5.19928 9.84488 5.63484 11.5757 8.58099 14.1468C11.5278 16.7185 12.9285 17.4232 13.0625 17.4705C13.1967 17.5179 13.3075 17.5399 13.3955 17.5369C13.5719 17.5307 13.7918 17.3745 14.0555 17.0678C14.319 16.761 15.1932 15.3838 15.4764 15.0761C15.7597 14.769 15.9992 14.6118 16.1952 14.605C16.3321 14.6002 16.4727 14.6317 16.6171 14.6997C16.7616 14.7677 21.1456 17.2928 21.2308 17.3791C21.4618 17.6146 21.3312 18.3789 21.1779 18.8144" fill="#092B2F"/>
</svg>
