<svg width="18" height="25" viewBox="0 0 18 25" fill="none" xmlns="http://www.w3.org/2000/svg">
<mask id="mask0_3_425" style="mask-type:alpha" maskUnits="userSpaceOnUse" x="0" y="0" width="18" height="25">
<path d="M0.238647 0.760742H17.7436V24.082H0.238647V0.760742Z" fill="white"/>
</mask>
<g mask="url(#mask0_3_425)">
<path fill-rule="evenodd" clip-rule="evenodd" d="M8.99148 12.1664C11.5504 12.1664 13.625 9.61315 13.625 6.46358C13.625 3.31395 12.9439 0.760742 8.99148 0.760742C5.03905 0.760742 4.35779 3.31395 4.35779 6.46358C4.35779 9.61315 6.43241 12.1664 8.99148 12.1664Z" fill="#092B2F"/>
<path fill-rule="evenodd" clip-rule="evenodd" d="M17.7323 20.6443C17.6465 15.1577 16.9393 13.5946 11.5278 12.6045C11.5278 12.6045 10.766 13.588 8.99055 13.588C7.21507 13.588 6.45318 12.6045 6.45318 12.6045C1.10075 13.5833 0.350569 15.1235 0.251931 20.4657C0.243842 20.902 0.240094 20.9249 0.238647 20.8743C0.238976 20.9692 0.239371 21.1447 0.239371 21.4507C0.239371 21.4507 1.52772 24.0824 8.99055 24.0824C16.4535 24.0824 17.7417 21.4507 17.7417 21.4507C17.7417 21.2541 17.7419 21.1173 17.7421 21.0243C17.7406 21.0556 17.7377 20.9949 17.7323 20.644L17.7323 20.6443Z" fill="#092B2F"/>
</g>
</svg>
